<svg id="Layer_1" data-name="Layer 1" xmlns="http://www.w3.org/2000/svg" viewBox="0 0 80 80"><defs><style>.cls-1{fill:#212121;}</style></defs><title>Artboard 1</title><path class="cls-1" d="M25.15,20.41,46.52,7.6V9.5L27.66,21,46.52,32.51v1.9L25.15,21.59Z"/><path class="cls-1" d="M46.74,34.79,24.93,21.71V20.29L46.74,7.21V9.62L28.08,21,46.74,32.38ZM25.37,21.47,46.3,34V32.63L27.24,21,46.3,9.37V8L25.37,20.54Z"/><path class="cls-1" d="M54.68,29.73,33.26,42.54v-1.9L52.12,29.12,33.26,17.64v-1.9L54.68,28.55Z"/><path class="cls-1" d="M33,42.93V40.53L51.7,29.12,33,17.76V15.35L54.9,28.43v1.43Zm.44-2.16v1.39l21-12.55v-.93l-21-12.55v1.39l19.06,11.6Z"/><path class="cls-1" d="M3.5,70.16A7.25,7.25,0,0,0,5.38,71,8.47,8.47,0,0,0,8,71.39a5.57,5.57,0,0,0,2.88-.65,4.13,4.13,0,0,0,1.65-1.92,9.83,9.83,0,0,0,.73-3.12q.17-1.85.17-4.22v-12h2.33v12a44.13,44.13,0,0,1-.25,4.92,11,11,0,0,1-1,3.78,5.73,5.73,0,0,1-2.33,2.43A8.41,8.41,0,0,1,8,73.49,8.84,8.84,0,0,1,2.83,72Z"/><path class="cls-1" d="M29.23,73.26a9.17,9.17,0,0,1-6.78-2.87,9.66,9.66,0,0,1-1.9-3A9,9,0,0,1,19.87,64a8.8,8.8,0,0,1,.72-3.48,9.4,9.4,0,0,1,2-2.95,9.65,9.65,0,0,1,3-2,9.45,9.45,0,0,1,7.53,0,9.46,9.46,0,0,1,4.85,5.1A9,9,0,0,1,38.57,64a8.77,8.77,0,0,1-.72,3.5,9.65,9.65,0,0,1-2,2.95,9.33,9.33,0,0,1-3,2A9.07,9.07,0,0,1,29.23,73.26ZM22,64a7.38,7.38,0,0,0,.53,2.77A7.46,7.46,0,0,0,24,69.11a7.25,7.25,0,0,0,2.28,1.63,7,7,0,0,0,3,.62,6.91,6.91,0,0,0,3-.63A7.22,7.22,0,0,0,34.52,69a7.49,7.49,0,0,0,1.42-7.82,7.27,7.27,0,0,0-3.78-4,7.41,7.41,0,0,0-5.92,0A7.22,7.22,0,0,0,24,59a7.68,7.68,0,0,0-1.47,2.37A7.2,7.2,0,0,0,22,64Z"/><path class="cls-1" d="M41.33,49.46,49.8,70.22l8.43-20.77h2.43L50.8,73.12h-2L38.9,49.46Z"/><path class="cls-1" d="M74.8,73.12l-7-15.37-7,15.37H58.6l8.3-18.27h1.8L77,73.12Z"/></svg>